<?xml version="1.0" encoding="UTF-8" standalone="no"?>
<!-- Created with Inkscape (http://www.inkscape.org/) -->

<svg
   xmlns:dc="http://purl.org/dc/elements/1.1/"
   xmlns:cc="http://creativecommons.org/ns#"
   xmlns:rdf="http://www.w3.org/1999/02/22-rdf-syntax-ns#"
   xmlns:svg="http://www.w3.org/2000/svg"
   xmlns="http://www.w3.org/2000/svg"
   xmlns:sodipodi="http://sodipodi.sourceforge.net/DTD/sodipodi-0.dtd"
   xmlns:inkscape="http://www.inkscape.org/namespaces/inkscape"
   width="177mm"
   height="80mm"
   viewBox="0 0 627.16535 283.46457"
   id="svg4472"
   version="1.1"
   inkscape:version="0.91 r13725"
   sodipodi:docname="bicycle.svg">
  <defs
     id="defs4474" />
  <sodipodi:namedview
     id="base"
     pagecolor="#ffffff"
     bordercolor="#666666"
     borderopacity="1.0"
     inkscape:pageopacity="0.0"
     inkscape:pageshadow="2"
     inkscape:zoom="1"
     inkscape:cx="342.74725"
     inkscape:cy="193.33333"
     inkscape:document-units="px"
     inkscape:current-layer="layer1"
     showgrid="false"
     inkscape:window-width="1440"
     inkscape:window-height="802"
     inkscape:window-x="3"
     inkscape:window-y="4"
     inkscape:window-maximized="0" />
  <metadata
     id="metadata4477">
    <rdf:RDF>
      <cc:Work
         rdf:about="">
        <dc:format>image/svg+xml</dc:format>
        <dc:type
           rdf:resource="http://purl.org/dc/dcmitype/StillImage" />
        <dc:title></dc:title>
      </cc:Work>
    </rdf:RDF>
  </metadata>
  <g
     inkscape:label="Layer 1"
     inkscape:groupmode="layer"
     id="layer1"
     transform="translate(0,-768.89763)">
    <g
       id="g5211">
      <path
         inkscape:connector-curvature="0"
         id="path5020"
         d="m 120.5,842.86221 a 100,100 0 0 0 -100,100 100,100 0 0 0 100,99.99999 100,100 0 0 0 100,-99.99999 100,100 0 0 0 -100,-100 z m 0,12.5 a 87.5,87.5 0 0 1 87.5,87.5 87.5,87.5 0 0 1 -87.5,87.49999 87.5,87.5 0 0 1 -87.5,-87.49999 87.5,87.5 0 0 1 87.5,-87.5 z"
         style="opacity:1;fill:none;fill-opacity:1;fill-rule:evenodd;stroke:#000000;stroke-width:5;stroke-linecap:round;stroke-linejoin:round;stroke-miterlimit:4;stroke-dasharray:none;stroke-opacity:1" />
      <path
         id="path5027"
         d="M 6.03085,927.46535 A 115.5,115.5 0 0 1 120.5,827.36221 115.5,115.5 0 0 1 234.97033,927.47409"
         style="opacity:1;fill:none;fill-opacity:1;fill-rule:evenodd;stroke:#000000;stroke-width:5;stroke-linecap:round;stroke-linejoin:round;stroke-miterlimit:4;stroke-dasharray:none;stroke-opacity:1"
         inkscape:connector-curvature="0" />
      <path
         style="opacity:1;fill:none;fill-opacity:1;fill-rule:evenodd;stroke:#000000;stroke-width:5;stroke-linecap:round;stroke-linejoin:round;stroke-miterlimit:4;stroke-dasharray:none;stroke-opacity:1"
         d="m 521.5,847.86221 a 100,100 0 0 0 -100,100 100,100 0 0 0 100,99.99999 100,100 0 0 0 100,-99.99999 100,100 0 0 0 -100,-100 z m 0,12.5 a 87.5,87.5 0 0 1 87.5,87.5 87.5,87.5 0 0 1 -87.5,87.49999 87.5,87.5 0 0 1 -87.5,-87.49999 87.5,87.5 0 0 1 87.5,-87.5 z"
         id="path5035"
         inkscape:connector-curvature="0" />
      <path
         inkscape:connector-curvature="0"
         id="circle5037"
         d="M 406.23892,955.28748 A 115.5,115.5 0 0 1 406,947.86221 a 115.5,115.5 0 0 1 115.5,-115.5 115.5,115.5 0 0 1 6.50714,0.18345"
         style="opacity:1;fill:none;fill-opacity:1;fill-rule:evenodd;stroke:#000000;stroke-width:5;stroke-linecap:round;stroke-linejoin:round;stroke-miterlimit:4;stroke-dasharray:none;stroke-opacity:1" />
      <g
         style="fill:#ffffff"
         transform="translate(-104,542.50001)"
         id="g5059">
        <path
           style="fill:#ffffff;fill-rule:evenodd;stroke:#000000;stroke-width:3;stroke-linecap:butt;stroke-linejoin:miter;stroke-miterlimit:4;stroke-dasharray:none;stroke-opacity:1"
           d="m 224.5,312.8622 c 0,175.5 0,175 0,175"
           id="path5047"
           inkscape:connector-curvature="0" />
        <path
           inkscape:connector-curvature="0"
           id="path5049"
           d="m 268.25,324.58498 c -87.75,151.98746 -87.5,151.55444 -87.5,151.55444"
           style="fill:#ffffff;fill-rule:evenodd;stroke:#000000;stroke-width:3;stroke-linecap:butt;stroke-linejoin:miter;stroke-miterlimit:4;stroke-dasharray:none;stroke-opacity:1" />
        <path
           style="fill:#ffffff;fill-rule:evenodd;stroke:#000000;stroke-width:3;stroke-linecap:butt;stroke-linejoin:miter;stroke-miterlimit:4;stroke-dasharray:none;stroke-opacity:1"
           d="m 300.27722,356.6122 c -151.98746,87.75 -151.55444,87.5 -151.55444,87.5"
           id="path5051"
           inkscape:connector-curvature="0" />
        <path
           inkscape:connector-curvature="0"
           id="path5053"
           d="m 312,400.3622 c -175.5,0 -175,0 -175,0"
           style="fill:#ffffff;fill-rule:evenodd;stroke:#000000;stroke-width:3;stroke-linecap:butt;stroke-linejoin:miter;stroke-miterlimit:4;stroke-dasharray:none;stroke-opacity:1" />
        <path
           style="fill:#ffffff;fill-rule:evenodd;stroke:#000000;stroke-width:3;stroke-linecap:butt;stroke-linejoin:miter;stroke-miterlimit:4;stroke-dasharray:none;stroke-opacity:1"
           d="m 300.27722,444.1122 c -151.98746,-87.75 -151.55444,-87.5 -151.55444,-87.5"
           id="path5055"
           inkscape:connector-curvature="0" />
        <path
           inkscape:connector-curvature="0"
           id="path5057"
           d="M 268.25,476.13942 C 180.5,324.15196 180.75,324.58498 180.75,324.58498"
           style="fill:#ffffff;fill-rule:evenodd;stroke:#000000;stroke-width:3;stroke-linecap:butt;stroke-linejoin:miter;stroke-miterlimit:4;stroke-dasharray:none;stroke-opacity:1" />
      </g>
      <g
         id="g5067"
         transform="translate(297,547.50001)">
        <path
           inkscape:connector-curvature="0"
           id="path5069"
           d="m 224.5,312.8622 c 0,175.5 0,175 0,175"
           style="fill:none;fill-rule:evenodd;stroke:#000000;stroke-width:3;stroke-linecap:butt;stroke-linejoin:miter;stroke-miterlimit:4;stroke-dasharray:none;stroke-opacity:1" />
        <path
           style="fill:none;fill-rule:evenodd;stroke:#000000;stroke-width:3;stroke-linecap:butt;stroke-linejoin:miter;stroke-miterlimit:4;stroke-dasharray:none;stroke-opacity:1"
           d="m 268.25,324.58498 c -87.75,151.98746 -87.5,151.55444 -87.5,151.55444"
           id="path5071"
           inkscape:connector-curvature="0" />
        <path
           inkscape:connector-curvature="0"
           id="path5073"
           d="m 300.27722,356.6122 c -151.98746,87.75 -151.55444,87.5 -151.55444,87.5"
           style="fill:none;fill-rule:evenodd;stroke:#000000;stroke-width:3;stroke-linecap:butt;stroke-linejoin:miter;stroke-miterlimit:4;stroke-dasharray:none;stroke-opacity:1" />
        <path
           style="fill:none;fill-rule:evenodd;stroke:#000000;stroke-width:3;stroke-linecap:butt;stroke-linejoin:miter;stroke-miterlimit:4;stroke-dasharray:none;stroke-opacity:1"
           d="m 312,400.3622 c -175.5,0 -175,0 -175,0"
           id="path5075"
           inkscape:connector-curvature="0" />
        <path
           inkscape:connector-curvature="0"
           id="path5077"
           d="m 300.27722,444.1122 c -151.98746,-87.75 -151.55444,-87.5 -151.55444,-87.5"
           style="fill:none;fill-rule:evenodd;stroke:#000000;stroke-width:3;stroke-linecap:butt;stroke-linejoin:miter;stroke-miterlimit:4;stroke-dasharray:none;stroke-opacity:1" />
        <path
           style="fill:none;fill-rule:evenodd;stroke:#000000;stroke-width:3;stroke-linecap:butt;stroke-linejoin:miter;stroke-miterlimit:4;stroke-dasharray:none;stroke-opacity:1"
           d="M 268.25,476.13942 C 180.5,324.15196 180.75,324.58498 180.75,324.58498"
           id="path5079"
           inkscape:connector-curvature="0" />
      </g>
      <path
         id="path5101"
         d="M 403.45453,842.56893 348,944.3622 l -228,0 73,-134 0,0 173.23438,0"
         style="opacity:1;fill:none;fill-opacity:1;fill-rule:evenodd;stroke:#000000;stroke-width:5;stroke-linecap:butt;stroke-linejoin:miter;stroke-miterlimit:4;stroke-dasharray:none;stroke-opacity:1"
         inkscape:connector-curvature="0" />
      <path
         inkscape:connector-curvature="0"
         id="path5094"
         d="m 155.15268,777.40785 192.88956,166.9087"
         style="fill:none;fill-rule:evenodd;stroke:#000000;stroke-width:5;stroke-linecap:butt;stroke-linejoin:miter;stroke-miterlimit:4;stroke-dasharray:none;stroke-opacity:1" />
      <path
         style="fill:none;fill-rule:evenodd;stroke:#000000;stroke-width:5;stroke-linecap:butt;stroke-linejoin:miter;stroke-miterlimit:4;stroke-dasharray:none;stroke-opacity:1"
         d="m 328.15268,777.40785 192.88956,166.9087"
         id="path5096"
         inkscape:connector-curvature="0" />
      <circle
         style="opacity:1;fill:#ffffff;fill-opacity:1;fill-rule:evenodd;stroke:#000000;stroke-width:3;stroke-linecap:butt;stroke-linejoin:miter;stroke-miterlimit:4;stroke-dasharray:none;stroke-opacity:1"
         id="circle5085"
         cx="521.5"
         cy="947.86218"
         r="21.5" />
      <path
         inkscape:connector-curvature="0"
         id="path5103"
         d="m 140.92625,778.02886 c 54.2199,0 55.48083,0 55.48083,0"
         style="fill:none;fill-rule:evenodd;stroke:#000000;stroke-width:5;stroke-linecap:round;stroke-linejoin:round;stroke-miterlimit:4;stroke-dasharray:none;stroke-opacity:1" />
      <path
         sodipodi:nodetypes="cccc"
         inkscape:connector-curvature="0"
         id="path5105"
         d="m 327.66667,776.69554 38,0 0,-1 c 22.87605,0 22.89424,20 1,20"
         style="fill:none;fill-rule:evenodd;stroke:#000000;stroke-width:5;stroke-linecap:round;stroke-linejoin:round;stroke-miterlimit:4;stroke-dasharray:none;stroke-opacity:1" />
      <circle
         r="21.5"
         cy="942.86218"
         cx="120.5"
         id="path5081"
         style="opacity:1;fill:#ffffff;fill-opacity:1;fill-rule:evenodd;stroke:#000000;stroke-width:3;stroke-linecap:butt;stroke-linejoin:miter;stroke-miterlimit:4;stroke-dasharray:none;stroke-opacity:1" />
    </g>
  </g>
</svg>
